<mxfile host="app.diagrams.net" modified="2025-01-01T06:34:54.450Z" agent="Mozilla/5.0 (Macintosh; Intel Mac OS X 10_15_7) AppleWebKit/537.36 (KHTML, like Gecko) Chrome/131.0.0.0 Safari/537.36 Edg/131.0.0.0" etag="lMIsURO3_7MXU6BvxLa8" version="24.6.2" type="github">
  <diagram id="prtHgNgQTEPvFCAcTncT" name="Page-1">
    <mxGraphModel dx="1005" dy="1752" grid="1" gridSize="10" guides="1" tooltips="1" connect="1" arrows="1" fold="1" page="1" pageScale="1" pageWidth="827" pageHeight="1169" math="0" shadow="0">
      <root>
        <mxCell id="0" />
        <mxCell id="1" parent="0" />
        <mxCell id="78Ht-M1CY9z7AdQErrhc-38" value="" style="rounded=1;whiteSpace=wrap;html=1;" vertex="1" parent="1">
          <mxGeometry x="70" y="-600" width="640" height="240" as="geometry" />
        </mxCell>
        <mxCell id="78Ht-M1CY9z7AdQErrhc-33" value="" style="rounded=1;whiteSpace=wrap;html=1;" vertex="1" parent="1">
          <mxGeometry x="70" y="-350" width="640" height="240" as="geometry" />
        </mxCell>
        <mxCell id="78Ht-M1CY9z7AdQErrhc-32" value="" style="rounded=1;whiteSpace=wrap;html=1;" vertex="1" parent="1">
          <mxGeometry x="30" y="190" width="680" height="320" as="geometry" />
        </mxCell>
        <mxCell id="78Ht-M1CY9z7AdQErrhc-11" value="" style="rounded=1;whiteSpace=wrap;html=1;" vertex="1" parent="1">
          <mxGeometry x="70" y="-80" width="640" height="240" as="geometry" />
        </mxCell>
        <mxCell id="78Ht-M1CY9z7AdQErrhc-3" value="" style="edgeStyle=orthogonalEdgeStyle;rounded=0;orthogonalLoop=1;jettySize=auto;html=1;" edge="1" parent="1" source="78Ht-M1CY9z7AdQErrhc-1" target="78Ht-M1CY9z7AdQErrhc-2">
          <mxGeometry relative="1" as="geometry" />
        </mxCell>
        <mxCell id="78Ht-M1CY9z7AdQErrhc-1" value="车辆数据实时获取" style="rounded=1;whiteSpace=wrap;html=1;" vertex="1" parent="1">
          <mxGeometry x="120" y="50" width="120" height="60" as="geometry" />
        </mxCell>
        <mxCell id="78Ht-M1CY9z7AdQErrhc-5" value="" style="edgeStyle=orthogonalEdgeStyle;rounded=0;orthogonalLoop=1;jettySize=auto;html=1;" edge="1" parent="1" source="78Ht-M1CY9z7AdQErrhc-2" target="78Ht-M1CY9z7AdQErrhc-4">
          <mxGeometry relative="1" as="geometry" />
        </mxCell>
        <mxCell id="78Ht-M1CY9z7AdQErrhc-8" style="edgeStyle=orthogonalEdgeStyle;rounded=0;orthogonalLoop=1;jettySize=auto;html=1;entryX=0;entryY=0.5;entryDx=0;entryDy=0;" edge="1" parent="1" source="78Ht-M1CY9z7AdQErrhc-2" target="78Ht-M1CY9z7AdQErrhc-6">
          <mxGeometry relative="1" as="geometry" />
        </mxCell>
        <mxCell id="78Ht-M1CY9z7AdQErrhc-2" value="订阅mqtt主题" style="whiteSpace=wrap;html=1;rounded=1;" vertex="1" parent="1">
          <mxGeometry x="320" y="50" width="120" height="60" as="geometry" />
        </mxCell>
        <mxCell id="78Ht-M1CY9z7AdQErrhc-4" value="/ezwlv3/路线id/车辆vin" style="whiteSpace=wrap;html=1;rounded=1;" vertex="1" parent="1">
          <mxGeometry x="520" y="50" width="130" height="60" as="geometry" />
        </mxCell>
        <mxCell id="78Ht-M1CY9z7AdQErrhc-6" value="/ezwlv3/路线id/#" style="whiteSpace=wrap;html=1;rounded=1;" vertex="1" parent="1">
          <mxGeometry x="520" y="-30" width="130" height="60" as="geometry" />
        </mxCell>
        <mxCell id="78Ht-M1CY9z7AdQErrhc-9" value="当前路线下所有车辆" style="text;html=1;align=center;verticalAlign=middle;resizable=0;points=[];autosize=1;strokeColor=none;fillColor=none;" vertex="1" parent="1">
          <mxGeometry x="515" y="-60" width="130" height="30" as="geometry" />
        </mxCell>
        <mxCell id="78Ht-M1CY9z7AdQErrhc-10" value="指定路线车辆" style="text;html=1;align=center;verticalAlign=middle;resizable=0;points=[];autosize=1;strokeColor=none;fillColor=none;" vertex="1" parent="1">
          <mxGeometry x="530" y="110" width="100" height="30" as="geometry" />
        </mxCell>
        <mxCell id="78Ht-M1CY9z7AdQErrhc-13" value="车辆数据实时同步到整个系统，多个页面之间展示" style="text;html=1;align=center;verticalAlign=middle;resizable=0;points=[];autosize=1;strokeColor=none;fillColor=none;fontSize=15;" vertex="1" parent="1">
          <mxGeometry x="70" width="350" height="30" as="geometry" />
        </mxCell>
        <mxCell id="78Ht-M1CY9z7AdQErrhc-18" value="" style="edgeStyle=orthogonalEdgeStyle;rounded=0;orthogonalLoop=1;jettySize=auto;html=1;" edge="1" parent="1" source="78Ht-M1CY9z7AdQErrhc-14" target="78Ht-M1CY9z7AdQErrhc-17">
          <mxGeometry relative="1" as="geometry" />
        </mxCell>
        <mxCell id="78Ht-M1CY9z7AdQErrhc-29" value="" style="edgeStyle=orthogonalEdgeStyle;rounded=0;orthogonalLoop=1;jettySize=auto;html=1;" edge="1" parent="1" source="78Ht-M1CY9z7AdQErrhc-14" target="78Ht-M1CY9z7AdQErrhc-28">
          <mxGeometry relative="1" as="geometry" />
        </mxCell>
        <mxCell id="78Ht-M1CY9z7AdQErrhc-14" value="控制车辆" style="rounded=1;whiteSpace=wrap;html=1;" vertex="1" parent="1">
          <mxGeometry x="70" y="210" width="120" height="60" as="geometry" />
        </mxCell>
        <mxCell id="78Ht-M1CY9z7AdQErrhc-16" value="" style="edgeStyle=orthogonalEdgeStyle;rounded=0;orthogonalLoop=1;jettySize=auto;html=1;" edge="1" parent="1" source="78Ht-M1CY9z7AdQErrhc-15" target="78Ht-M1CY9z7AdQErrhc-13">
          <mxGeometry relative="1" as="geometry" />
        </mxCell>
        <mxCell id="78Ht-M1CY9z7AdQErrhc-15" value="获取车辆信息" style="text;html=1;align=center;verticalAlign=middle;resizable=0;points=[];autosize=1;strokeColor=none;fillColor=none;fontSize=15;" vertex="1" parent="1">
          <mxGeometry x="145" y="-70" width="110" height="30" as="geometry" />
        </mxCell>
        <mxCell id="78Ht-M1CY9z7AdQErrhc-20" value="" style="edgeStyle=orthogonalEdgeStyle;rounded=0;orthogonalLoop=1;jettySize=auto;html=1;" edge="1" parent="1" source="78Ht-M1CY9z7AdQErrhc-17" target="78Ht-M1CY9z7AdQErrhc-19">
          <mxGeometry relative="1" as="geometry" />
        </mxCell>
        <mxCell id="78Ht-M1CY9z7AdQErrhc-17" value="通过网络请求 控制车辆&lt;div&gt;传输参数&amp;nbsp; 车辆vin码和属性&lt;/div&gt;" style="whiteSpace=wrap;html=1;rounded=1;" vertex="1" parent="1">
          <mxGeometry x="270" y="210" width="130" height="60" as="geometry" />
        </mxCell>
        <mxCell id="78Ht-M1CY9z7AdQErrhc-19" value="在某个站点定位" style="whiteSpace=wrap;html=1;rounded=1;" vertex="1" parent="1">
          <mxGeometry x="500" y="210" width="120" height="60" as="geometry" />
        </mxCell>
        <mxCell id="78Ht-M1CY9z7AdQErrhc-21" value="发车到某个站点" style="whiteSpace=wrap;html=1;rounded=1;" vertex="1" parent="1">
          <mxGeometry x="500" y="290" width="120" height="60" as="geometry" />
        </mxCell>
        <mxCell id="78Ht-M1CY9z7AdQErrhc-22" style="edgeStyle=orthogonalEdgeStyle;rounded=0;orthogonalLoop=1;jettySize=auto;html=1;entryX=0;entryY=0.5;entryDx=0;entryDy=0;" edge="1" parent="1" source="78Ht-M1CY9z7AdQErrhc-17" target="78Ht-M1CY9z7AdQErrhc-21">
          <mxGeometry relative="1" as="geometry">
            <mxPoint x="500" y="320" as="targetPoint" />
            <Array as="points">
              <mxPoint x="450" y="240" />
              <mxPoint x="450" y="320" />
              <mxPoint x="500" y="320" />
            </Array>
          </mxGeometry>
        </mxCell>
        <mxCell id="78Ht-M1CY9z7AdQErrhc-23" value="接管请求开关&lt;div&gt;雨天模式开关&lt;/div&gt;" style="whiteSpace=wrap;html=1;rounded=1;" vertex="1" parent="1">
          <mxGeometry x="500" y="360" width="120" height="60" as="geometry" />
        </mxCell>
        <mxCell id="78Ht-M1CY9z7AdQErrhc-24" style="edgeStyle=orthogonalEdgeStyle;rounded=0;orthogonalLoop=1;jettySize=auto;html=1;entryX=-0.006;entryY=0.627;entryDx=0;entryDy=0;entryPerimeter=0;" edge="1" parent="1" source="78Ht-M1CY9z7AdQErrhc-17" target="78Ht-M1CY9z7AdQErrhc-23">
          <mxGeometry relative="1" as="geometry">
            <Array as="points">
              <mxPoint x="450" y="240" />
              <mxPoint x="450" y="398" />
            </Array>
          </mxGeometry>
        </mxCell>
        <mxCell id="78Ht-M1CY9z7AdQErrhc-25" value="暂停车辆" style="whiteSpace=wrap;html=1;rounded=1;" vertex="1" parent="1">
          <mxGeometry x="500" y="430" width="120" height="60" as="geometry" />
        </mxCell>
        <mxCell id="78Ht-M1CY9z7AdQErrhc-26" style="edgeStyle=orthogonalEdgeStyle;rounded=0;orthogonalLoop=1;jettySize=auto;html=1;entryX=0.006;entryY=0.586;entryDx=0;entryDy=0;entryPerimeter=0;" edge="1" parent="1" source="78Ht-M1CY9z7AdQErrhc-17" target="78Ht-M1CY9z7AdQErrhc-25">
          <mxGeometry relative="1" as="geometry" />
        </mxCell>
        <mxCell id="78Ht-M1CY9z7AdQErrhc-31" value="" style="edgeStyle=orthogonalEdgeStyle;rounded=0;orthogonalLoop=1;jettySize=auto;html=1;" edge="1" parent="1" source="78Ht-M1CY9z7AdQErrhc-28" target="78Ht-M1CY9z7AdQErrhc-30">
          <mxGeometry relative="1" as="geometry" />
        </mxCell>
        <mxCell id="78Ht-M1CY9z7AdQErrhc-28" value="遥控车辆" style="whiteSpace=wrap;html=1;rounded=1;" vertex="1" parent="1">
          <mxGeometry x="70" y="320" width="120" height="60" as="geometry" />
        </mxCell>
        <mxCell id="78Ht-M1CY9z7AdQErrhc-49" value="" style="edgeStyle=orthogonalEdgeStyle;rounded=0;orthogonalLoop=1;jettySize=auto;html=1;" edge="1" parent="1" source="78Ht-M1CY9z7AdQErrhc-30" target="78Ht-M1CY9z7AdQErrhc-48">
          <mxGeometry relative="1" as="geometry" />
        </mxCell>
        <mxCell id="78Ht-M1CY9z7AdQErrhc-30" value="通过mqtt指令遥控" style="whiteSpace=wrap;html=1;rounded=1;" vertex="1" parent="1">
          <mxGeometry x="70" y="420" width="120" height="60" as="geometry" />
        </mxCell>
        <mxCell id="78Ht-M1CY9z7AdQErrhc-36" value="" style="edgeStyle=orthogonalEdgeStyle;rounded=0;orthogonalLoop=1;jettySize=auto;html=1;" edge="1" parent="1" source="78Ht-M1CY9z7AdQErrhc-34" target="78Ht-M1CY9z7AdQErrhc-35">
          <mxGeometry relative="1" as="geometry" />
        </mxCell>
        <mxCell id="78Ht-M1CY9z7AdQErrhc-34" value="车辆监控画面" style="rounded=1;whiteSpace=wrap;html=1;" vertex="1" parent="1">
          <mxGeometry x="110" y="-320" width="120" height="60" as="geometry" />
        </mxCell>
        <mxCell id="78Ht-M1CY9z7AdQErrhc-35" value="播放，暂停，回看录像" style="whiteSpace=wrap;html=1;rounded=1;" vertex="1" parent="1">
          <mxGeometry x="310" y="-320" width="120" height="60" as="geometry" />
        </mxCell>
        <mxCell id="78Ht-M1CY9z7AdQErrhc-37" value="移动云台" style="whiteSpace=wrap;html=1;rounded=1;" vertex="1" parent="1">
          <mxGeometry x="310" y="-250" width="120" height="60" as="geometry" />
        </mxCell>
        <mxCell id="78Ht-M1CY9z7AdQErrhc-40" value="站点列表" style="rounded=1;whiteSpace=wrap;html=1;fillColor=#dae8fc;strokeColor=#6c8ebf;" vertex="1" parent="1">
          <mxGeometry x="335" y="-520" width="90" height="40" as="geometry" />
        </mxCell>
        <mxCell id="78Ht-M1CY9z7AdQErrhc-41" value="车辆信息" style="rounded=1;whiteSpace=wrap;html=1;" vertex="1" parent="1">
          <mxGeometry x="125" y="-570" width="90" height="40" as="geometry" />
        </mxCell>
        <mxCell id="78Ht-M1CY9z7AdQErrhc-42" value="路线信息" style="rounded=1;whiteSpace=wrap;html=1;fillColor=#dae8fc;strokeColor=#6c8ebf;" vertex="1" parent="1">
          <mxGeometry x="230" y="-520" width="90" height="40" as="geometry" />
        </mxCell>
        <mxCell id="78Ht-M1CY9z7AdQErrhc-43" value="车辆配置信息" style="rounded=1;whiteSpace=wrap;html=1;fillColor=#dae8fc;strokeColor=#6c8ebf;" vertex="1" parent="1">
          <mxGeometry x="230" y="-570" width="90" height="40" as="geometry" />
        </mxCell>
        <mxCell id="78Ht-M1CY9z7AdQErrhc-44" value="车辆实时状态" style="rounded=1;whiteSpace=wrap;html=1;fillColor=#fff2cc;strokeColor=#d6b656;" vertex="1" parent="1">
          <mxGeometry x="335" y="-570" width="90" height="40" as="geometry" />
        </mxCell>
        <mxCell id="78Ht-M1CY9z7AdQErrhc-45" value="场景信息" style="rounded=1;whiteSpace=wrap;html=1;" vertex="1" parent="1">
          <mxGeometry x="125" y="-520" width="90" height="40" as="geometry" />
        </mxCell>
        <mxCell id="78Ht-M1CY9z7AdQErrhc-46" value="HTTPS" style="rounded=1;whiteSpace=wrap;html=1;fillColor=#dae8fc;strokeColor=#6c8ebf;" vertex="1" parent="1">
          <mxGeometry x="580" y="-570" width="90" height="30" as="geometry" />
        </mxCell>
        <mxCell id="78Ht-M1CY9z7AdQErrhc-47" value="MQTT" style="rounded=1;whiteSpace=wrap;html=1;fillColor=#fff2cc;strokeColor=#d6b656;" vertex="1" parent="1">
          <mxGeometry x="580" y="-520" width="90" height="30" as="geometry" />
        </mxCell>
        <mxCell id="78Ht-M1CY9z7AdQErrhc-48" value="主题：/IPMR/车辆vin" style="whiteSpace=wrap;html=1;rounded=1;" vertex="1" parent="1">
          <mxGeometry x="215" y="420" width="120" height="60" as="geometry" />
        </mxCell>
      </root>
    </mxGraphModel>
  </diagram>
</mxfile>
